<?xml version="1.0" standalone="no"?>
<!DOCTYPE svg PUBLIC "-//W3C//DTD SVG 20010904//EN"
 "http://www.w3.org/TR/2001/REC-SVG-20010904/DTD/svg10.dtd">
<svg version="1.0" xmlns="http://www.w3.org/2000/svg"
 width="532.000000pt" height="552.000000pt" viewBox="0 0 532.000000 552.000000"
 preserveAspectRatio="xMidYMid meet">

<g transform="translate(0.000000,552.000000) scale(0.100000,-0.100000)"
fill="#000000" stroke="none">
<path d="M2564 5145 c-12 -8 -29 -30 -38 -50 -21 -44 -9 -92 33 -128 l28 -23
-28 -16 c-61 -35 -56 -136 8 -179 l23 -16 -24 -12 c-73 -39 -62 -150 19 -190
62 -30 145 28 145 102 0 40 -40 97 -68 97 -10 0 -4 7 14 16 59 29 73 110 28
163 -14 17 -33 31 -42 31 -12 0 -8 6 11 18 41 27 56 53 57 92 0 35 -19 74 -50
97 -21 17 -91 16 -116 -2z"/>
<path d="M3690 4833 c-55 -20 -90 -95 -67 -142 l14 -29 -40 -5 c-57 -8 -91
-45 -91 -99 0 -24 3 -51 8 -60 7 -15 3 -18 -26 -18 -43 0 -76 -24 -95 -67 -49
-118 125 -203 190 -93 19 31 23 95 7 105 -20 12 -9 20 30 20 57 1 94 39 94 97
0 24 -3 51 -8 61 -7 14 -3 17 24 17 47 0 100 55 100 104 0 76 -74 133 -140
109z"/>
<path d="M1461 4814 c-46 -32 -57 -96 -26 -145 17 -26 58 -49 88 -49 24 0 26
-2 17 -19 -37 -70 33 -170 111 -159 26 4 27 3 13 -16 -42 -60 15 -156 94 -156
78 0 132 82 98 148 -19 37 -62 62 -106 62 -27 0 -30 2 -20 19 13 25 13 87 0
112 -15 27 -68 52 -101 47 -26 -4 -27 -3 -13 16 19 28 17 86 -4 112 -36 45
-107 58 -151 28z"/>
<path d="M2490 4343 c-169 -28 -217 -38 -293 -63 -184 -62 -324 -147 -465
-284 -174 -169 -310 -425 -351 -661 -7 -38 -17 -94 -22 -124 -20 -117 -3 -345
36 -496 54 -205 149 -385 367 -692 70 -99 146 -237 173 -318 9 -27 21 -90 26
-139 15 -141 49 -201 159 -275 137 -93 300 -136 505 -136 136 1 213 13 333 54
102 36 180 82 240 143 58 60 70 89 83 206 11 99 43 202 87 281 14 25 90 144
170 264 79 120 167 261 194 313 97 185 145 354 154 549 16 320 -62 615 -225
855 -57 84 -177 211 -262 275 -105 82 -302 176 -439 211 -146 37 -366 54 -470
37z m38 -329 c26 -18 31 -84 7 -104 -7 -6 -49 -20 -92 -31 -91 -23 -207 -77
-278 -129 -27 -21 -87 -76 -132 -124 -90 -94 -122 -107 -163 -66 -44 44 -13
108 108 222 115 108 209 165 362 217 96 33 155 38 188 15z m123 -678 c48 -16
355 -112 404 -127 17 -5 57 -17 90 -28 33 -11 107 -33 165 -51 156 -46 193
-63 210 -93 13 -24 13 -30 0 -54 -16 -28 -29 -37 -72 -53 l-28 -10 0 -125 0
-126 40 -48 c22 -26 40 -53 40 -60 0 -27 -43 -93 -73 -111 -70 -43 -174 -18
-217 52 -29 49 -25 75 20 124 l40 44 0 87 c0 49 -4 93 -8 99 -5 8 -30 4 -84
-13 l-78 -24 0 -222 c-1 -157 -4 -229 -13 -244 -40 -72 -226 -157 -404 -184
-162 -25 -395 36 -530 138 -56 41 -58 50 -63 293 l-5 225 -65 22 c-36 11 -123
40 -195 63 -71 22 -136 48 -142 57 -20 26 -15 67 10 90 12 11 56 30 97 42 41
13 117 36 168 52 164 51 274 86 412 129 74 23 153 48 175 55 51 18 53 18 106
1z"/>
<path d="M2300 3104 c-151 -47 -278 -89 -282 -93 -8 -7 557 -185 582 -183 36
2 593 181 580 186 -78 28 -572 176 -587 176 -10 -1 -142 -39 -293 -86z"/>
<path d="M2250 2601 l0 -169 45 -25 c182 -102 434 -104 610 -4 l40 23 3 172
c1 95 0 172 -4 172 -3 0 -77 -22 -163 -50 -86 -27 -168 -50 -180 -50 -13 0
-94 23 -181 50 -87 28 -160 50 -164 50 -3 0 -6 -76 -6 -169z"/>
<path d="M704 3926 c-43 -43 -46 -93 -9 -142 33 -43 74 -52 124 -27 l39 20 6
-29 c9 -47 57 -88 103 -88 21 0 48 7 60 15 19 14 21 13 27 -16 7 -36 47 -76
86 -84 59 -13 130 45 130 105 0 29 -26 76 -52 94 -33 23 -90 20 -124 -6 -15
-13 -25 -17 -21 -11 10 16 -15 73 -41 97 -23 20 -88 24 -120 7 -22 -12 -32 -6
-32 20 0 9 -13 31 -29 48 -24 25 -37 31 -71 31 -34 0 -48 -6 -76 -34z"/>
<path d="M4389 3931 c-16 -16 -29 -39 -29 -50 0 -22 -24 -29 -35 -11 -3 6 -26
10 -50 10 -50 0 -99 -34 -109 -76 -5 -20 -11 -24 -24 -19 -57 24 -100 17 -137
-23 -38 -41 -35 -100 9 -146 63 -67 149 -40 180 56 5 17 8 17 40 2 20 -10 44
-14 59 -10 36 9 84 51 91 81 7 26 20 32 31 15 10 -16 78 -12 105 7 40 27 49
45 50 91 0 35 -6 49 -29 73 -24 24 -38 29 -76 29 -38 0 -52 -5 -76 -29z"/>
<path d="M1013 2883 c-24 -5 -73 -57 -73 -78 0 -8 -13 -1 -29 16 -51 50 -142
34 -173 -32 -12 -24 -18 -28 -24 -17 -16 26 -58 48 -93 48 -48 0 -101 -57
-101 -108 0 -98 115 -145 184 -75 14 14 26 32 26 39 0 9 12 5 36 -11 63 -43
136 -26 167 37 12 26 17 29 22 16 4 -9 22 -24 42 -33 107 -51 207 83 124 166
-16 16 -36 29 -44 29 -9 0 -21 2 -29 4 -7 2 -23 1 -35 -1z"/>
<path d="M4174 2883 c-36 -7 -76 -57 -77 -97 -3 -99 108 -151 181 -84 20 19
26 20 30 8 13 -35 60 -70 97 -70 39 0 91 22 97 42 3 7 12 -1 22 -19 17 -35 61
-63 96 -63 90 0 142 127 77 188 -48 45 -109 48 -149 7 l-22 -23 -23 33 c-40
60 -132 70 -171 20 l-19 -24 -11 24 c-19 40 -78 67 -128 58z"/>
<path d="M3765 2057 c-55 -25 -75 -100 -41 -152 24 -36 80 -59 115 -47 26 9
26 8 26 -28 0 -83 57 -127 135 -107 24 6 25 5 22 -32 -3 -32 2 -45 28 -75 28
-31 38 -36 77 -36 36 0 50 6 73 29 38 37 45 70 26 115 -19 46 -71 71 -119 58
l-32 -9 4 43 c3 39 -1 48 -32 79 -36 36 -78 46 -115 26 -15 -8 -17 -4 -14 34
3 35 -1 48 -25 74 -33 37 -83 48 -128 28z"/>
<path d="M1371 2044 c-31 -22 -53 -77 -45 -111 5 -19 4 -24 -5 -18 -22 13 -78
7 -106 -11 -33 -22 -55 -69 -48 -104 4 -24 3 -25 -41 -22 -41 4 -49 1 -81 -31
-40 -40 -46 -81 -18 -127 45 -78 154 -68 190 17 8 20 12 46 9 59 -6 21 -4 22
26 13 68 -19 147 55 128 121 -8 28 -8 28 25 19 66 -18 135 35 135 103 0 56
-51 108 -107 108 -21 0 -49 -7 -62 -16z"/>
<path d="M2030 1163 c-14 -18 -20 -38 -18 -62 2 -29 12 -42 53 -73 57 -43 162
-89 273 -121 68 -18 103 -21 287 -21 239 0 302 11 451 83 112 53 154 92 154
141 0 30 -6 43 -26 59 -37 29 -72 26 -130 -11 -125 -80 -252 -111 -454 -111
-203 1 -329 32 -454 111 -63 41 -107 42 -136 5z"/>
<path d="M2038 880 c-25 -26 -29 -36 -24 -62 3 -18 13 -40 22 -49 21 -23 155
-92 222 -114 41 -13 52 -21 52 -38 0 -37 46 -123 89 -166 77 -77 187 -112 289
-91 72 15 103 31 159 83 46 43 85 108 97 164 6 28 14 34 59 49 29 9 82 32 120
52 111 57 144 116 92 167 -34 35 -67 31 -170 -20 -106 -54 -188 -73 -345 -81
-215 -12 -395 22 -521 97 -36 21 -75 39 -88 39 -12 0 -36 -14 -53 -30z m722
-279 c0 -5 -16 -23 -35 -39 -40 -36 -105 -49 -150 -32 -31 12 -85 57 -85 72 0
4 61 8 135 8 74 0 135 -4 135 -9z"/>
</g>
</svg>
